<svg width="45" height="45" viewBox="0 0 45 45" fill="none" xmlns="http://www.w3.org/2000/svg">
<rect x="0.5" y="0.5" width="44" height="44" rx="9.5" fill="white"/>
<mask id="mask0_47989_5100" style="mask-type:alpha" maskUnits="userSpaceOnUse" x="6" y="6" width="33" height="33">
<rect x="6.5" y="6.5" width="32" height="32" fill="#D9D9D9"/>
</mask>
<g mask="url(#mask0_47989_5100)">
<path d="M15.833 34.5C15.0997 34.5 14.4719 34.2389 13.9497 33.7167C13.4275 33.1944 13.1663 32.5667 13.1663 31.8333V14.5H11.833V11.8333H18.4997V10.5H26.4997V11.8333H33.1663V14.5H31.833V31.8333C31.833 32.5667 31.5719 33.1944 31.0497 33.7167C30.5275 34.2389 29.8997 34.5 29.1663 34.5H15.833ZM29.1663 14.5H15.833V31.8333H29.1663V14.5ZM18.4997 29.1667H21.1663V17.1667H18.4997V29.1667ZM23.833 29.1667H26.4997V17.1667H23.833V29.1667Z" fill="#2A3647"/>
</g>
<rect x="0.5" y="0.5" width="44" height="44" rx="9.5" stroke="#2A3647"/>
</svg>
