<svg width="32" height="41" viewBox="0 0 32 41" fill="none" xmlns="http://www.w3.org/2000/svg">
<path d="M22.927 0.992188H15.8389V9.14696H22.927V0.992188Z" fill="#2A3647"/>
<path d="M15.8392 15.7793H22.9273V27.2803C22.9597 30.0478 22.1721 32.7624 20.6646 35.0791C19.1761 37.33 16.3027 40.0081 10.9866 40.0081C5.19613 40.0081 1.8211 37.2698 0 35.7692L4.47096 30.2542C6.24844 31.7055 7.96049 32.8994 11.0138 32.8994C13.3256 32.8994 14.2471 31.9574 14.7869 31.1359C15.5207 29.9949 15.9003 28.6604 15.8774 27.3022L15.8392 15.7793Z" fill="#2A3647"/>
<path d="M12.2239 10.6309H5.13574V17.7505H12.2239V10.6309Z" fill="#29ABE2"/>
<path d="M26.6409 36.667C26.6409 38.184 25.8721 39.0001 24.798 39.0001C23.7239 39.0001 23.0205 38.0307 23.0205 36.7437C23.0205 35.4567 23.7457 34.438 24.858 34.438C25.9703 34.438 26.6409 35.4402 26.6409 36.667ZM23.8438 36.7272C23.8438 37.6418 24.2091 38.3155 24.8362 38.3155C25.4632 38.3155 25.8176 37.6035 25.8176 36.6725C25.8176 35.8564 25.4904 35.0897 24.8362 35.0897C24.1819 35.0897 23.8438 35.8291 23.8438 36.7272Z" fill="#2A3647"/>
<path d="M28.0478 34.5039V38.9291H27.2627V34.5039H28.0478Z" fill="#2A3647"/>
<path d="M28.8975 38.9291V34.5039H29.7698L30.7077 36.3276C30.9491 36.8045 31.1639 37.2945 31.351 37.7954C31.302 37.2477 31.2802 36.6179 31.2802 35.9169V34.5039H31.9999V38.9291H31.1875L30.2387 37.067C29.9876 36.5778 29.7637 36.075 29.5681 35.5609C29.5681 36.1086 29.6063 36.7274 29.6063 37.4887V38.9236L28.8975 38.9291Z" fill="#2A3647"/>
</svg>
