<?xml version="1.0" standalone="no"?>
<!DOCTYPE svg PUBLIC "-//W3C//DTD SVG 20010904//EN"
 "http://www.w3.org/TR/2001/REC-SVG-20010904/DTD/svg10.dtd">
<svg version="1.0" xmlns="http://www.w3.org/2000/svg"
 width="656.000000pt" height="656.000000pt" viewBox="0 0 656.000000 656.000000"
 preserveAspectRatio="xMidYMid meet">
<metadata>
Created by potrace 1.14, written by Peter Selinger 2001-2017
</metadata>
<g transform="translate(0.000000,656.000000) scale(0.100000,-0.100000)"
fill="#000000" stroke="none">
<path d="M3256 6400 c-1 -3 -2 -297 -2 -655 l1 -650 565 1 565 0 2 652 c2 507
0 652 -10 653 -34 2 -603 1 -612 -1 -5 -1 -14 -1 -20 0 -23 4 -487 5 -489 0z"/>
<path d="M1546 4852 c-2 -4 -4 -260 -4 -570 l0 -562 56 0 c353 -3 1066 1 1071
6 3 3 6 260 6 570 l0 564 -562 0 c-309 0 -564 -3 -567 -8z"/>
<path d="M3262 4032 c-4 -1 -7 -449 -5 -995 2 -599 -1 -1006 -7 -1027 -5 -19
-12 -51 -15 -70 -10 -57 -65 -209 -98 -269 -16 -31 -36 -67 -43 -80 -12 -22
-79 -104 -113 -139 -18 -18 -105 -73 -141 -89 -46 -21 -110 -43 -110 -38 0 2
-11 0 -24 -5 -32 -12 -153 -24 -236 -23 -83 0 -241 12 -252 19 -5 3 -21 7 -36
10 -70 12 -92 17 -162 41 -104 35 -307 136 -323 160 -4 7 -13 13 -18 13 -6 0
-44 26 -86 58 -42 31 -83 62 -91 67 -9 6 -27 20 -40 33 l-24 23 -19 -23 c-10
-13 -24 -29 -31 -37 -7 -8 -53 -64 -102 -125 -49 -61 -96 -117 -103 -124 -7
-7 -13 -17 -13 -21 0 -4 -15 -23 -32 -42 -18 -19 -96 -113 -173 -208 -76 -96
-144 -179 -150 -185 -6 -6 -29 -35 -53 -65 l-42 -53 68 -55 c37 -30 76 -62 87
-71 11 -10 37 -28 58 -42 20 -14 37 -28 37 -32 0 -5 5 -8 10 -8 10 0 69 -38
80 -51 6 -7 249 -149 255 -149 2 0 39 -17 82 -38 133 -65 316 -128 488 -168
17 -4 35 -8 40 -10 6 -1 26 -5 45 -8 19 -4 46 -8 60 -11 14 -3 43 -7 65 -9 22
-3 60 -8 85 -11 25 -3 88 -8 140 -10 52 -2 97 -5 100 -6 14 -3 145 0 225 6 84
5 112 9 175 20 14 2 41 7 60 9 47 7 67 12 120 26 25 7 50 13 55 14 6 1 28 8
50 15 335 107 612 298 827 571 33 41 65 82 72 91 8 9 15 20 17 25 2 5 31 54
63 109 123 205 245 539 271 740 2 17 7 48 11 70 4 22 9 54 12 70 8 50 13 2105
5 2106 -16 3 -1113 4 -1121 1z"/>
<path d="M4607 1033 c-89 -30 -174 -139 -194 -251 -12 -65 -6 -185 11 -244 24
-81 79 -151 146 -186 48 -26 65 -29 130 -28 62 2 83 7 121 29 72 43 127 116
143 192 3 17 9 41 11 55 7 33 7 147 0 183 -39 198 -199 307 -368 250z m149
-108 c26 -16 57 -51 60 -65 0 -3 7 -18 14 -35 9 -20 14 -68 14 -140 0 -97 -3
-116 -24 -160 -53 -106 -160 -125 -232 -40 -40 48 -61 180 -45 284 22 140 124
214 213 156z"/>
<path d="M5104 1042 c-19 -3 -21 -10 -22 -55 0 -29 0 -65 -1 -82 -1 -16 -1
-153 0 -303 l2 -273 61 3 61 3 0 350 0 350 -29 2 c-16 1 -34 4 -40 5 -6 2 -21
2 -32 0z"/>
<path d="M5345 692 c1 -191 3 -350 4 -354 0 -5 25 -8 55 -8 l54 0 -3 261 c-1
143 1 257 5 252 4 -4 18 -35 31 -68 13 -33 67 -145 120 -250 l97 -190 66 -3
66 -3 0 354 0 354 -58 2 -58 1 2 -239 c1 -132 5 -246 10 -253 5 -9 4 -10 -4
-3 -6 6 -28 48 -49 95 -22 47 -61 128 -88 180 -27 52 -49 97 -50 100 0 3 -7
16 -15 30 -8 14 -21 39 -30 55 -14 29 -18 30 -86 32 l-70 3 1 -348z"/>
</g>
</svg>
